<?xml version="1.0" encoding="utf-8"?>
<!-- Generator: Adobe Illustrator 23.0.1, SVG Export Plug-In . SVG Version: 6.00 Build 0)  -->
<svg version="1.1" id="Warstwa_1" xmlns="http://www.w3.org/2000/svg" xmlns:xlink="http://www.w3.org/1999/xlink" x="0px" y="0px"
	 viewBox="0 0 28.2 28.2" style="enable-background:new 0 0 28.2 28.2;" xml:space="preserve">
<style type="text/css">
	.st0{fill-rule:evenodd;clip-rule:evenodd;}
</style>
<path class="st0" d="M14.7,13.7c-0.1,1.1,0,2.6,0,3.7c-0.6-0.1-0.4-0.1-0.4-0.9c0-0.3,0.1-1-0.2-1l-0.8-0.1
	c-0.1-0.8,0.1-1.8-0.3-2.4c-0.5-0.7-1.1-0.4-1.8-0.9c-0.1-1.2,0.4,0.2,0.3-2.1l0.7-0.2c0-0.8,0-0.2-0.2-0.6
	c-0.3-0.5-0.2-0.8-0.6-1.3c-0.5-0.6-0.7-0.4-1.2-0.8c-0.4-0.3,0.2,0-0.4-0.3C9.3,7.3,9.7,7.1,9,7.4C8,7.9,8.1,8.6,7.9,9.1L7.6,9.6
	C8,10,7.9,9.7,8.3,10c0,2.2,0.4,1,0.3,2.1c-0.6,0.4-1.9,0.2-2,1.6c-0.1,1.1,0,2.6,0,3.7c-0.7,0-1.1,0-1.6,0.3c-1.3,0.9-1,3,1.1,3
	c4.7,0.1,10.3,0,15.2,0c1.3,0,2.2-0.1,2.5-1.3c0.3-1.2-0.6-1.9-1.6-2l0-1.2l-0.6-0.3c0-4.4-0.3-2.7-2-3.8c0-1.1,0.3,0.1,0.3-2.1
	c0.4-0.3,0.3,0,0.7-0.4c-0.2-0.6-0.2,0-0.4-0.9c-0.1-0.4-0.2-0.6-0.4-0.8c-0.5-0.6-0.4-0.2-1.5-1l-1.6,1c-0.3,0.3-0.3,0.5-0.4,0.9
	c-0.2,0.7-0.3,0.2-0.3,0.9l0.6,0.2c0,2.3,0.4,0.9,0.3,2.1C15.9,12.6,14.8,12.2,14.7,13.7 M8.5,9.2c0-0.8,0.4-1.2,1.1-1.3l0,1.3
	l-0.5,0L9,9.2L8.5,9.2z M10.2,7.9c0.7,0.1,1,0.5,1.1,1.3l-0.5,0l-0.1,0l-0.5,0L10.2,7.9z M16.7,9.2C16.7,8.4,17,8,17.8,7.9l0,1.3
	L16.7,9.2z M18.4,7.9c0.7,0.1,1,0.6,1.1,1.3l-0.5,0l-0.1,0l-0.5,0L18.4,7.9z M8.9,9.9l2.1,0l0,1c-0.1,0.3-0.5,0.7-1,0.7
	c-0.5,0-0.8-0.3-1.1-0.5L8.9,9.9z M17,9.9l2.1,0l0,1.2c-0.4,0.2-0.6,0.6-1.2,0.5c-0.4-0.1-0.7-0.4-0.9-0.7L17,9.9z M9.2,12.3
	c0.5-0.3,0.4,0.1,1.4-0.2C10.6,12.8,9.5,12.7,9.2,12.3z M17.4,12.1c0.9,0.3,0.9-0.1,1.4,0.2C18.4,12.7,17.4,12.8,17.4,12.1z M8.9,13
	c1.1,0.3,1,0.2,2.1,0l0,0.6l-2.1,0L8.9,13z M19.1,13.6l-0.5,0l-1.1,0l-0.5,0l0-0.6c1.1,0.2,1,0.3,2.1,0L19.1,13.6z M7.2,17.3
	c0-3.2-0.4-4.3,1.1-4.4c0,1.1-0.3,0.9-0.3,2.1c0,0.8,0,1.6,0,2.3L7.2,17.3z M11.9,15.3c-0.1-2.6-0.4-0.6-0.4-2.4
	c1.1,0.2,1.2,0.3,1.1,2.4L11.9,15.3z M15.3,17.3c0-0.9,0-1.9,0-2.8c0-1.3-0.1-1.4,1.1-1.6c0,1.6-0.4,0.4-0.3,2.1c0,0.8,0,1.6,0,2.3
	L15.3,17.3z M20.1,16c0-3.3-0.3-1.5-0.3-3.1c1.4,0.1,1.1,0.9,1.1,3.1L20.1,16z M8.5,14.3l2.8,0l0,1c-0.6,0-1.2-0.1-1.6,0.1
	c-0.2,0.5-0.1,1.3-0.1,1.9l-1.1,0V14.3z M16.7,14.3l2.8,0l0,1.7l-2,0.1l0,0.4l0,0.9l-0.8,0V14.3z M10.2,15.9l3.5,0l0,1.4l-0.5,0
	l-2.5,0l-0.5,0V15.9z M18.1,16.6l3.4,0l0,0.7L18,17.3L18.1,16.6z M22.6,18.5c-0.9-0.2-1.1,0.1-0.9,0.9c0.4,0.2,0.4,0.2,0.9,0.1
	C22.8,19.1,22.8,19,22.6,18.5z M5.4,18.5c-0.2,0.5-0.2,0.6,0,1c0.5,0.1,0.5,0.1,0.9-0.1C6.5,18.6,6.3,18.3,5.4,18.5z M12.4,18.5
	c-0.9-0.2-1.1,0.1-0.9,0.9C12.3,19.9,12.8,19.3,12.4,18.5z M15.6,18.5c-0.4,0.8,0,1.4,0.9,0.9C16.7,18.6,16.5,18.3,15.6,18.5z
	 M7.6,18.5c-0.2,0.2-0.3,0.4-0.3,0.8C8.6,20.3,9,18.2,7.6,18.5z M20.4,18.5c-1.5-0.3-1,1.8,0.3,0.8C20.7,18.8,20.6,18.7,20.4,18.5z
	 M13.4,19.1c0.2,0.2,0.3,0.6,0.8,0.4c0.7-0.3,0.3-1.7-0.8-0.9L13.4,19.1z M17.5,19.3c0.4,0.3,0.7,0.3,1.1,0.1c0.2-1-0.4-1.2-1.1-0.7
	L17.5,19.3z M9.4,19.4c0.4,0.3,0.6,0.3,1.1-0.1l-0.1-0.6C9.9,18.2,9.2,18.3,9.4,19.4z M5.6,18C6.2,17.8,18.4,18,20.8,18
	c0.8,0,1.7-0.1,2.1,0.4c0.5,0.7,0.1,1.5-0.5,1.6C21.7,20.2,9.7,20,7.2,20c-0.8,0-1.8,0.1-2.2-0.4C4.5,18.9,4.9,18.2,5.6,18z"/>
</svg>
