<svg id="Warstwa_1" data-name="Warstwa 1" xmlns="http://www.w3.org/2000/svg" viewBox="0 0 28.19 28.19"><defs><style>.cls-1{fill-rule:evenodd;}</style></defs><title>2</title><path class="cls-1" d="M4.25,13.7A9.46,9.46,0,0,0,6,19.34,9.42,9.42,0,0,0,8.63,22a8.88,8.88,0,0,1,1.09.7c-.2.77-1,2.15-.2,2,.52-.12.78-1.06,1.54-1.49C19.47,25.88,28.17,16,21.17,7.26c-.45-.56-1.1-.88-1.51-1.45a16.09,16.09,0,0,0,.95-1.6C21,3.58,21.5,3,20.3,3L13.8,3c-.55.91-.08,1.07-1.23,1.22a9.71,9.71,0,0,0-8.32,9.5M14.18,3.64l5.94,0c-.77,1.58-1.83,3.19-2.74,4.78-.46.82-.89,1.57-1.39,2.42L14.93,12.7c-.6,1.22,1.51.52,3.15.77-.6.68-1.21,1.56-1.85,2.28S15,17.24,14.39,18s-1.26,1.43-1.87,2.22a27.3,27.3,0,0,1-1.86,2.15,39.11,39.11,0,0,1,1.49-4,23.68,23.68,0,0,0,1.33-3.78c-.05-.64-2.36-.23-3.51-.34ZM10,21.93C4.05,19.38,3.42,10.82,7.8,7.18A8.91,8.91,0,0,1,13,4.87l-.28.81a8.28,8.28,0,0,0-6.82,6.68c-.66,3.74,1.57,7.81,4.46,8.78Zm.54-1.43c-2.34-.92-4.55-4.23-4-7.82.46-3,3-5.78,5.82-6.18-.36,1.29-1.17,3-1.67,4.21-2.15,5.42-2.19,4.08,2,4.23A48.49,48.49,0,0,1,10.51,20.5ZM19.73,8c-.15-.16-.18-.24-.37-.43a5.7,5.7,0,0,1-.43-.42l.24-.6c.52.13.55.26.91.56a4.86,4.86,0,0,1,.68.68,9.06,9.06,0,0,1-9.29,14.72c.74-1.12.52-.46,2.44-.46A8.2,8.2,0,0,0,21.68,11,7,7,0,0,0,19.73,8Zm-1.24-.15a4.6,4.6,0,0,1,1.56,1.46,7.55,7.55,0,0,1-6,12.06l-1.45-.12c.33-.68,4.83-5.89,6-7.29.31-.39.79-.61.52-1.06s-1.94,0-3.34-.23Z"/></svg>