<?xml version="1.0" encoding="utf-8"?>
<!-- Generator: Adobe Illustrator 23.0.1, SVG Export Plug-In . SVG Version: 6.00 Build 0)  -->
<svg version="1.1" id="Warstwa_1" xmlns="http://www.w3.org/2000/svg" xmlns:xlink="http://www.w3.org/1999/xlink" x="0px" y="0px"
	 viewBox="0 0 28.2 28.2" style="enable-background:new 0 0 28.2 28.2;" xml:space="preserve">
<style type="text/css">
	.st0{fill-rule:evenodd;clip-rule:evenodd;}
</style>
<g>
	<path d="M16.7,7.5c-0.2-0.2-0.6-0.1-0.8,0.1l-5.9,5.9c-0.1,0.1-0.2,0.4-0.2,0.5c0,0.2,0.2,0.4,0.4,0.4l2.9,1l-2,4.1
		c-0.1,0.3-0.1,0.6,0.2,0.7c0.2,0.2,0.6,0.1,0.8-0.1l5.9-5.9c0.1-0.1,0.2-0.4,0.2-0.5c0-0.2-0.2-0.4-0.4-0.4l-2.9-1l2-4.1
		C17,7.9,16.9,7.6,16.7,7.5z"/>
	<path d="M14,3.8c-3,0-5.8,1.4-7.7,3.6V6.8c0-0.3-0.3-0.6-0.6-0.6c-0.3,0-0.6,0.3-0.6,0.6v2.5c0,0.6,0.7,0.6,0.6,0.6c0,0,0,0,0,0
		l2.3-0.1c0.3,0,0.6-0.3,0.5-0.6c0-0.3-0.3-0.6-0.6-0.5L6.9,8.6C8.5,6.4,11.2,5,14,5c4.8,0,8.8,4,8.8,8.8c0,0.3,0.3,0.6,0.6,0.6
		c0.3,0,0.6-0.3,0.6-0.6C24,8.3,19.5,3.8,14,3.8z"/>
	<path d="M22.2,17.8l-2.3,0.1c-0.3,0-0.6,0.3-0.5,0.6s0.3,0.6,0.6,0.5l1.2-0.1c-1.6,2.2-4.3,3.6-7.1,3.6c-4.8,0-8.8-4-8.8-8.8
		c0-0.3-0.3-0.6-0.6-0.6S4,13.5,4,13.8c0,5.5,4.5,10,10,10c3,0,5.8-1.4,7.7-3.6v0.6c0,0.3,0.3,0.6,0.6,0.6c0.3,0,0.6-0.3,0.6-0.6
		v-2.5C22.8,18,22.5,17.7,22.2,17.8z"/>
</g>
</svg>
