<?xml version="1.0" encoding="utf-8"?>
<!-- Generator: Adobe Illustrator 23.0.1, SVG Export Plug-In . SVG Version: 6.00 Build 0)  -->
<svg version="1.1" id="Warstwa_1" xmlns="http://www.w3.org/2000/svg" xmlns:xlink="http://www.w3.org/1999/xlink" x="0px" y="0px"
	 viewBox="0 0 166 44" style="enable-background:new 0 0 166 44;" xml:space="preserve">
<style type="text/css">
	.st0{fill:#ED2424;}
	.st1{fill:#30AD4A;}
</style>
<g>
	<g>
		<g>
			<g>
				<g>
					<polygon class="st0" points="22.3,-0.3 19.4,3.7 22.2,7.7 22.3,7.7 29.4,17.7 22.2,27.7 22.2,27.7 19.4,31.7 22.3,35.7 
						35.1,17.7 					"/>
					<path class="st0" d="M12.6-0.3l-12.8,18l12.8,18l12.8-18L12.6-0.3z M5.5,17.7l7.2-10l7.2,10l-7.2,10L5.5,17.7z"/>
				</g>
			</g>
		</g>
		<g>
			<path d="M52.6,6.9c1.2,0.7,2.1,1.6,2.7,2.7c0.6,1.1,0.9,2.3,0.9,3.6c0,1.3-0.3,2.5-0.9,3.6c-0.6,1.1-1.4,2-2.6,2.6
				c-1.2,0.7-2.7,1-4.4,1h-3.5v6.5H40v-21h8.3C50,5.8,51.4,6.2,52.6,6.9z M50.3,15.8c0.8-0.5,1.1-1.4,1.1-2.6c0-1.2-0.4-2-1.1-2.5
				c-0.8-0.5-1.7-0.7-2.8-0.7h-2.7v6.6h2.7C48.6,16.5,49.5,16.3,50.3,15.8z"/>
			<path d="M65,19.5h-2.5v7.4h-4.8v-21h8.3c1.7,0,3.2,0.3,4.4,1c1.2,0.6,2.1,1.5,2.7,2.5c0.6,1.1,0.9,2.2,0.9,3.4
				c0,1.4-0.4,2.6-1.1,3.7c-0.7,1.1-1.7,1.9-3.1,2.4l4.7,8h-5.1L65,19.5z M62.5,15.7h2.7c1.1,0,2.1-0.2,2.8-0.7
				c0.8-0.5,1.1-1.2,1.1-2.3c0-1-0.4-1.7-1.1-2.2c-0.8-0.4-1.7-0.6-2.8-0.6h-2.7V15.7z"/>
			<path d="M79.4,25.7c-1.5-1-2.6-2.3-3.4-3.9c-0.8-1.6-1.1-3.4-1.1-5.4s0.4-3.8,1.1-5.5c0.8-1.7,1.9-3,3.4-4c1.5-1,3.3-1.5,5.5-1.5
				c2.1,0,3.9,0.5,5.4,1.5c1.5,1,2.6,2.3,3.4,4c0.8,1.7,1.1,3.5,1.1,5.5c0,2-0.4,3.8-1.1,5.5c-0.8,1.6-1.9,2.9-3.4,3.9
				c-1.5,1-3.3,1.4-5.4,1.4C82.8,27.1,80.9,26.7,79.4,25.7z M88.4,21.1c0.8-1.3,1.3-2.8,1.3-4.7c0-1.9-0.4-3.5-1.2-4.8
				c-0.8-1.3-2-2-3.6-2c-1.1,0-2,0.3-2.7,0.9c-0.7,0.6-1.3,1.4-1.6,2.5c-0.4,1-0.5,2.1-0.5,3.3c0,1.9,0.4,3.4,1.3,4.7
				c0.8,1.3,2,1.9,3.6,1.9C86.4,23,87.6,22.3,88.4,21.1z"/>
			<path d="M99.9,26.1c-1.3-0.7-2.2-1.5-2.9-2.6s-1-2.2-1-3.3V20h5.3v0.2c0,0.7,0.3,1.4,0.8,2c0.5,0.6,1.3,0.9,2.4,0.9
				c0.9,0,1.6-0.2,2.1-0.7c0.5-0.4,0.8-1,0.8-1.7c0-0.6-0.2-1.2-0.7-1.5c-0.5-0.4-1.1-0.7-1.7-0.8l-2.5-0.5
				c-1.4-0.3-2.8-0.9-4.1-1.8c-1.3-0.9-1.9-2.3-1.9-4.3c0-1.3,0.3-2.4,1-3.4c0.7-0.9,1.6-1.7,2.7-2.2c1.2-0.5,2.5-0.8,3.9-0.8
				c1.7,0,3.1,0.3,4.3,0.9c1.2,0.6,2.1,1.4,2.8,2.4c0.6,1,0.9,2,0.9,3.1V12H107v-0.1c0-0.6-0.2-1.2-0.7-1.8
				c-0.5-0.6-1.2-0.8-2.2-0.8c-0.8,0-1.4,0.2-1.9,0.6c-0.5,0.4-0.7,1-0.7,1.7c0,0.7,0.3,1.2,0.8,1.6c0.5,0.4,1.1,0.6,1.9,0.8
				l2.5,0.5c1.6,0.3,3,1,4.2,1.9c1.2,0.9,1.7,2.3,1.7,4.1c0,1.3-0.4,2.5-1.1,3.5c-0.7,1-1.7,1.8-2.9,2.3c-1.2,0.5-2.6,0.8-4.1,0.8
				C102.7,27.1,101.2,26.8,99.9,26.1z"/>
			<g>
				<polygon points="113.5,9.9 119.2,9.9 119.2,26.9 124,26.9 124,9.9 129.7,9.9 129.7,5.8 113.5,5.8 				"/>
				<polygon points="131.4,26.9 146.1,26.9 146.1,22.8 136.2,22.8 136.2,18 144.5,18 144.5,14.4 136.2,14.4 136.2,9.9 146.1,9.9 
					146.1,5.8 131.4,5.8 				"/>
				<path d="M159.9,18.9c1.4-0.5,2.4-1.4,3.1-2.4c0.7-1.1,1.1-2.3,1.1-3.7c0-1.2-0.3-2.4-0.9-3.4c-0.6-1.1-1.5-1.9-2.7-2.5
					c-1.2-0.6-2.6-1-4.4-1h-8.3v21h4.8v-7.4h2.5l4.3,7.4h5.1L159.9,18.9z M158.2,15c-0.8,0.5-1.7,0.7-2.8,0.7h-2.7V9.9h2.7
					c1.1,0,2.1,0.2,2.8,0.6c0.8,0.4,1.1,1.2,1.1,2.2C159.4,13.8,159,14.6,158.2,15z"/>
			</g>
		</g>
	</g>
	<g>
		<g>
			<path class="st1" d="M116.7,40.2c-0.7-0.8-1.1-1.9-1.1-3.5c0-1.6,0.4-2.8,1.1-3.5c0.7-0.8,1.8-1.1,3.2-1.1c1.3,0,2.3,0.4,3,1.1
				c0.7,0.8,1,1.9,1,3.5v0.5H118c0,0.8,0.2,1.4,0.5,1.8c0.3,0.4,0.8,0.6,1.5,0.6c0.5,0,0.9-0.1,1.2-0.4c0.3-0.3,0.4-0.7,0.4-1.2h2.3
				c0,1.1-0.4,2-1.1,2.5c-0.7,0.6-1.7,0.8-2.9,0.8C118.4,41.4,117.4,41,116.7,40.2z M121.4,35.7c0-1.2-0.5-1.8-1.5-1.8
				c-0.6,0-1,0.2-1.3,0.5c-0.3,0.3-0.5,0.8-0.6,1.4H121.4z"/>
			<path class="st1" d="M124.7,32.2h2l0.2,1.2h0.1c0.7-0.9,1.6-1.4,2.8-1.4c0.9,0,1.6,0.2,2.2,0.7c0.5,0.5,0.8,1.3,0.8,2.4v6h-2.3
				v-5.5c0-0.6-0.1-1-0.4-1.2c-0.3-0.2-0.6-0.4-1.2-0.4c-0.5,0-1,0.2-1.3,0.6c-0.3,0.4-0.5,0.8-0.5,1.4v5.2h-2.3V32.2z"/>
			<path class="st1" d="M134.7,40.2c-0.7-0.8-1.1-1.9-1.1-3.5c0-1.6,0.4-2.8,1.1-3.5c0.7-0.8,1.8-1.1,3.2-1.1c1.3,0,2.3,0.4,3,1.1
				c0.7,0.8,1,1.9,1,3.5v0.5H136c0,0.8,0.2,1.4,0.5,1.8c0.3,0.4,0.8,0.6,1.5,0.6c0.5,0,0.9-0.1,1.2-0.4c0.3-0.3,0.4-0.7,0.4-1.2h2.3
				c0,1.1-0.4,2-1.1,2.5c-0.7,0.6-1.7,0.8-2.9,0.8C136.4,41.4,135.4,41,134.7,40.2z M139.4,35.7c0-1.2-0.5-1.8-1.5-1.8
				c-0.6,0-1,0.2-1.3,0.5c-0.3,0.3-0.5,0.8-0.6,1.4H139.4z"/>
			<path class="st1" d="M142.7,32.2h2l0.2,1.4h0.1c0.2-0.5,0.4-0.9,0.7-1.2c0.3-0.3,0.7-0.4,1.2-0.4c0.2,0,0.4,0,0.6,0.1
				c0.2,0,0.3,0.1,0.3,0.1v2.2h-0.6c-0.8,0-1.3,0.2-1.6,0.6s-0.5,1-0.5,1.9v4.3h-2.3V32.2z"/>
			<path class="st1" d="M148.3,43.7c-0.4-0.4-0.6-0.9-0.6-1.5c0-0.8,0.5-1.4,1.4-1.8c-0.6-0.3-0.9-0.7-0.9-1.3c0-0.4,0.1-0.7,0.4-1
				c0.3-0.3,0.7-0.5,1.1-0.6c-0.9-0.5-1.3-1.3-1.3-2.4c0-0.9,0.3-1.7,1-2.2c0.7-0.5,1.7-0.8,2.9-0.8c0.7,0,1.3,0.1,1.8,0.3
				c0.3-0.2,0.6-0.5,0.7-0.8c0.2-0.3,0.2-0.6,0.2-0.8h2.3c0,0.6-0.2,1.1-0.5,1.5c-0.3,0.4-0.8,0.6-1.4,0.8c0.6,0.5,0.8,1.2,0.8,2.1
				c0,0.9-0.3,1.7-1,2.2c-0.7,0.5-1.6,0.8-2.8,0.8h-1.4c-0.2,0-0.4,0-0.5,0.1c-0.1,0.1-0.2,0.2-0.2,0.4c0,0.1,0,0.3,0.2,0.3
				c0.1,0.1,0.2,0.1,0.4,0.1h4.1c0.7,0,1.2,0.2,1.6,0.7c0.4,0.4,0.7,1,0.7,1.7c0,0.5-0.1,1-0.4,1.4c-0.3,0.4-0.7,0.7-1.2,1
				s-1.1,0.3-1.7,0.3h-4.2C149.3,44.2,148.7,44.1,148.3,43.7z M154.1,42.6c0.3,0,0.5-0.1,0.7-0.2c0.2-0.1,0.3-0.3,0.3-0.6
				c0-0.2-0.1-0.4-0.3-0.6c-0.2-0.1-0.4-0.2-0.7-0.2h-3.3c-0.2,0-0.5,0.1-0.6,0.2c-0.2,0.1-0.3,0.3-0.3,0.6c0,0.2,0.1,0.4,0.3,0.6
				c0.2,0.1,0.4,0.2,0.6,0.2H154.1z M153.6,36.2c0.3-0.3,0.4-0.6,0.4-1.1c0-0.5-0.1-0.8-0.4-1.1c-0.3-0.3-0.7-0.4-1.2-0.4
				c-0.5,0-1,0.1-1.2,0.4c-0.3,0.3-0.4,0.6-0.4,1.1c0,0.5,0.1,0.8,0.4,1.1c0.3,0.3,0.7,0.4,1.2,0.4
				C152.9,36.5,153.3,36.4,153.6,36.2z"/>
			<path class="st1" d="M158.5,44.2c-0.2,0-0.4-0.1-0.6-0.1c-0.1,0-0.2-0.1-0.2-0.1v-1.6h1.1c0.4,0,0.7-0.1,1-0.3
				c0.2-0.2,0.5-0.5,0.6-0.9l-3.5-8.9h2.4l1.7,4.2c0.1,0.3,0.2,0.7,0.4,1.2c0.1,0.5,0.2,0.9,0.3,1.1h0.1c0-0.2,0.1-0.5,0.2-0.9
				c0.1-0.5,0.2-0.9,0.4-1.4l1.3-4.2h2.4l-3,8.5c-0.3,0.7-0.6,1.4-0.8,1.9c-0.3,0.5-0.7,0.9-1.1,1.2c-0.5,0.3-1,0.5-1.7,0.5
				C159,44.2,158.7,44.2,158.5,44.2z"/>
		</g>
	</g>
</g>
</svg>
