<?xml version="1.0" encoding="utf-8"?>
<!-- Generator: Adobe Illustrator 23.0.1, SVG Export Plug-In . SVG Version: 6.00 Build 0)  -->
<svg version="1.1" id="Warstwa_1" xmlns="http://www.w3.org/2000/svg" xmlns:xlink="http://www.w3.org/1999/xlink" x="0px" y="0px"
	 viewBox="0 0 28.2 28.2" style="enable-background:new 0 0 28.2 28.2;" xml:space="preserve">
<style type="text/css">
	.st0{fill-rule:evenodd;clip-rule:evenodd;}
</style>
<path class="st0" d="M24.2,13.9c0.4-1,0-1.8-1-1.9c-1-0.1-1.4-0.1-1.6-1.3c-0.1-1.1,1-1,1.1-1.9c0.1-0.6-0.6-1.5-1.3-1.4
	c-1,0.2-1.1,1.1-2,0.4c-0.9-0.7-0.8-0.6-0.6-1.8c0.2-1-0.7-1.5-1.5-1.4c-0.7,0.1-1,1.1-1.3,1.6L14.5,6c-0.5-0.6-0.2-1.2-1-1.7
	c-0.8-0.3-1.8,0.1-1.8,1.2l0,1.1l-1.1,0.5C9.8,6.7,9.2,5.7,8.2,6.5C7,7.6,8.1,7.9,8.5,9l-0.9,1.4l-1.9,0c-0.4,0.5-0.5,1-0.5,1.8
	c0.7,0.5,1.2,0.6,1.8,1l0,1.6c-0.6,0.3-1.2,0.5-1.6,1c-0.1,0.8,0.2,1.3,0.5,1.7c1.5,0.3,1.9-0.6,2.7,0.7c0.6,1.1-0.9,1.4-0.5,2.5
	c0.3,0.9,1.3,1.2,2.2,0.4c0.8-0.8,1.2-0.7,2.3,0c0.1,0.6-0.1,1.4,0.3,1.9c0.3,0.4,1.2,0.5,1.7,0.3c0.6-0.4,0.6-1.4,0.8-2l1.6-0.2
	c0.6,0.4,0.6,1,1.3,1.4c0.8,0.1,1.3-0.3,1.6-0.6c0.3-1.5-1-1.7,0.2-2.7c1.2-1.1,1.5,0.5,2.6,0c0.4-0.2,1-0.9,0.7-1.6
	c-0.2-0.5-1-0.7-1.2-1.2c-0.3-0.5,0.1-1.5,0.5-1.7C23.2,14.3,23.8,14.7,24.2,13.9 M8.6,13.5c0,2,0.2,2.6,3.5,0.8
	c0.5-0.2,0.7-0.7,0.8-1.4c0.1-0.8-0.4-1.1-0.8-1.5c-0.5-0.6-1.5-2.3-2.4-1.2C9.1,11,8.6,12.3,8.6,13.5z M9.3,14.7
	c-0.2-1.6,0.1-3.2,1-4.2c0.6,0.3,0.8,0.8,1.1,1.1c0.4,0.5,0.9,0.6,0.7,1.5c-0.1,0.7-0.7,0.7-1.3,1C10.4,14.4,9.8,14.7,9.3,14.7z
	 M14.6,19.5c0.3-1.1,0.1-3.5-0.7-4.1c-1.2-0.9-2.3-0.1-3.5,0.5C9,16.6,9.5,17.3,11,18.5C11.8,19.1,13.5,19.9,14.6,19.5z M10.2,16.7
	c3.6-2.1,3.8-1,3.9,2.3C12.3,18.8,10.7,17.7,10.2,16.7z M16.6,14.6c-1.6,0.5-1.3,1.8-1.1,3.6c0.1,0.8,0.1,1.4,1,1.2
	c1.6-0.4,3.8-2.6,3.7-3.7C20.1,15,17.1,14.5,16.6,14.6z M16.2,18.8c-0.2-1.2-0.6-2.7,0.3-3.4c0.5-0.4,2.5,0,3.1,0.4
	C19,17.2,17.8,18.4,16.2,18.8z M20.6,14.2c0.6-2-1.1-4.7-2.1-5.2c-0.7-0.3-1,0.4-1.3,0.9c-0.6,1.1-1.6,2-0.6,3.3
	C17.1,13.9,19.6,14.5,20.6,14.2z M20.1,13.7c-0.7,0-1.3-0.2-2-0.4c-2.4-0.5-0.8-2.1,0-3.7C19.2,10.2,20,12,20.1,13.7z M17,8.2
	c-1.8-1.3-5.3-0.2-5.6,0.5c-0.3,0.7,0.5,1.2,0.8,1.6c0.5,0.6,1.8,2.3,3.1,1.2C15.7,11.1,17,9,17,8.2z M12,9c1.1-0.9,2.9-0.8,4.4-0.5
	c-0.3,0.7-1.1,2.6-2,2.6C13.4,11.2,12,9.1,12,9z M14.1,12.6c-1.4,0.8-0.3,2.8,1.2,2.1C16.5,14.1,15.5,11.8,14.1,12.6z M14.3,13.3
	c0.7-0.5,1.2,0.5,0.7,0.8C14.4,14.5,13.8,13.7,14.3,13.3z M8.3,7.4c0.6-0.6,0.4-0.9,1.2-0.2c0.4,0.4,0.7,0.7,1.6,0.5
	C13.3,7,11.7,5.4,12.6,5c1.3-0.7,0.4,1.5,2.2,1.8c1.8,0.3,2.1-0.2,2.6-1.5C19.5,5.4,17,6.6,18.7,8c1.9,1.6,1.7,0.2,3.2,0.1
	c0.5,1,0.5,0.7-0.3,1.5c-0.6,0.5-0.6,0.9-0.3,1.8c1,2.6,2.6,0.1,2.5,2.3c-1.4,0.4-1.9,0-2.3,1.6c-0.4,1.5,0.5,1.8,1.3,2.4l-0.4,0.8
	c-1.5-0.2-1.6-1.1-2.9,0.1c-1.4,1.3-0.1,1.6-0.3,2.9l-0.7,0.3c-0.9-0.7-0.6-1.8-2.4-1.4c-1.8,0.4-1.1,0.9-1.8,2.2
	c-1.4,0-0.8-0.4-1-1.5c-0.1-0.8-0.5-0.9-1.2-1.2c-2.4-0.9-1.5,1.7-3.2,0.5c-0.1-1.3,1.6-1.3,0-3.2c-1.5-1.7-2.7,0.7-2.8-1.4
	c1.1-0.6,1.8-0.4,1.7-2.2c-0.1-1.7-0.7-1.4-1.9-2L6,11.1c1.6-0.2,1.8,0.6,2.7-1C9.7,8.4,8.6,8.5,8.3,7.4z"/>
</svg>
