<?xml version="1.0" encoding="utf-8"?>
<!-- Generator: Adobe Illustrator 23.0.1, SVG Export Plug-In . SVG Version: 6.00 Build 0)  -->
<svg version="1.1" id="Warstwa_1" xmlns="http://www.w3.org/2000/svg" xmlns:xlink="http://www.w3.org/1999/xlink" x="0px" y="0px"
	 viewBox="0 0 28.2 28.2" style="enable-background:new 0 0 28.2 28.2;" xml:space="preserve">
<style type="text/css">
	.st0{fill-rule:evenodd;clip-rule:evenodd;}
</style>
<path class="st0" d="M17.2,23.3c0.7-2.9-0.9-4.3,1.2-6.9c0.3-0.4,0.7-0.6,1-1.1c0.3-0.3,0.6-0.8,0.8-1.1c0.5-0.8,0.9-1.8,1.1-2.8
	c0.8-4.8-3-8.8-7.3-8.8c-4.3,0-8.1,4-7.3,8.8c0.5,3.1,2.1,3.9,3,5.1c1.9,2.6,0.5,4.1,1.1,6.8c1.2,0.3,0.8,0,1.5,0.9
	c0.7,0.9,2.9,0.9,3.6,0C16.4,23.4,16,23.6,17.2,23.3 M12.5,12.6l0,5.6l-1.2,0c-1.3-3.6-4.5-4.1-4-8.8c0.3-3.2,3.2-6.1,6.7-6.1
	c4.8,0,9,5.7,5.3,11.1c-0.8,1.2-1.6,1.1-2.6,3.8l-1.2,0l0-5.6c2.9,0,2.3-2,1.9-2.5c-0.4-0.5-1.3-0.7-1.9-0.2c-0.6,0.4-0.6,1.1-0.6,2
	l-1.5,0c0-0.9-0.1-1.6-0.6-2c-0.7-0.5-1.5-0.2-1.9,0.2C10.2,10.7,9.6,12.6,12.5,12.6z M12.5,11.9c-2.8,0.1-1.2-2.1-0.3-1.4
	C12.6,10.8,12.5,11.4,12.5,11.9z M16.7,11.7c-0.4,0.3-0.6,0.2-1.2,0.2c0-2.6,1.5-1.1,1.5-1.1c0,0.3,0.1,0.2,0,0.5
	c-0.2,0.7,0.2-0.2-0.1,0.2L16.7,11.7z M13.2,12.6l1.5,0l0,5.6l-1.5,0L13.2,12.6z M11.4,19.5V19h5.2l0,0.8c-1.6,0-1.2-0.1-1.4,0.3
	c0.2,0.4-0.4,0.3,1.4,0.3l0.1,0.8c-2,0-2.7-0.3-2.5,0.5c0.5,0.3,1.1,0.2,2.5,0.2l0.1,0.8h-5.2l0-0.8c0.6,0,0.9,0.1,1.4-0.2
	c-0.1-0.6,0.2-0.5-1.4-0.5l0.1-0.8c0.8,0,2,0.2,2.5-0.2v-0.4c-0.5-0.3-1.6-0.1-2.1-0.1C10.9,19.6,11.7,19.7,11.4,19.5z M12.5,23.4
	l2.9,0C15,24.5,12.9,24.5,12.5,23.4z"/>
</svg>
