<?xml version="1.0" encoding="utf-8"?>
<!-- Generator: Adobe Illustrator 23.0.1, SVG Export Plug-In . SVG Version: 6.00 Build 0)  -->
<svg version="1.1" id="Warstwa_1" xmlns="http://www.w3.org/2000/svg" xmlns:xlink="http://www.w3.org/1999/xlink" x="0px" y="0px"
	 viewBox="0 0 28.2 28.2" style="enable-background:new 0 0 28.2 28.2;" xml:space="preserve">
<style type="text/css">
	.st0{fill-rule:evenodd;clip-rule:evenodd;}
</style>
<path class="st0" d="M21.8,18.9c2.2,0,1.9,0.3,1.9-2.2c0-2.2,0.3-2.1-1.9-2.1v-1.7c1.7,0,1.9,0.2,1.9-1.1c0-3.6,0.4-3.1-1.9-3.2
	l0-1.7c0.6,0,1.3,0.1,1.7-0.1c0.3-0.4,0.2-1.8,0-2.2C23,4.2,8.6,4.5,5.9,4.4c-1.7,0-1.6-0.3-1.6,1.4C4.2,7.4,4.6,7,6.1,7l0,1.7
	c-2.2,0-1.9-0.3-1.9,2.2c0,2.2-0.3,2.1,1.9,2.1v1.7c-1.7,0-1.9-0.2-1.9,1.1c0,3.6-0.4,3.1,1.9,3.2l0,1.7c-0.6,0-1.3-0.1-1.7,0.1
	c-0.3,0.4-0.2,1.8,0,2.2c0.7,0.4,8.2,0.2,9.7,0.2c1.5,0,8.9,0.2,9.6-0.2c0.2-0.4,0.3-1.8,0-2.2c-0.4-0.2-1.2-0.1-1.8-0.1L21.8,18.9z
	 M5.1,5.3l17.8,0l0,0.8l-0.3,0l-17.5,0L5.1,5.3z M7,7l1.3,0l0,1.7L7,8.7L7,7z M9.1,7l3.4,0l0,1.6c-0.5,0.2-2.8,0.1-3.4,0L9.1,7z
	 M14.6,8.7h-1.1L13.3,7l1.3,0c0,0.3,0,0.6,0,1L14.6,8.7z M15.5,7l3.4,0l0,1.6c-0.6,0.1-2.9,0.1-3.4,0L15.5,7z M19.7,7L21,7l0,1.7
	l-1.3-0.1L19.7,7z M5.1,9.6l0.2,0h17.4l0.3,0l-0.1,0.8L5.1,10.3L5.1,9.6z M22.9,11.3l0,0.8l-0.3,0H5.7l-0.2,0L5.1,12l0-0.8
	L22.9,11.3z M7,12.9l1.3,0l0,1.6l-0.4,0l-0.4,0l-0.5,0L7,12.9z M9.1,12.9l3.4,0l0.1,1.7l-3.1,0l-0.4-0.1L9.1,12.9z M13.3,12.9l1.3,0
	l0,1.7l-0.5,0l-0.4,0l-0.5,0L13.3,12.9z M15.5,12.9l3,0l0.4,0.1l0,1.6l-0.4,0h-3V12.9z M19.7,13l1.3,0v1.7l-0.5,0l-0.4,0l-0.4-0.1
	L19.7,13z M22.9,15.6l0,0.8l-0.4,0l-0.1,0l-16.9,0l-0.4-0.1l0-0.8L22.9,15.6z M22.9,17.2l0,0.8l-0.4,0l-0.1,0l-16.9,0L5.1,18l0-0.8
	L7,17.2h13.7L22.9,17.2z M7,18.9l1.1,0c0.3,0.3,0.2,1.2,0.1,1.7l-1.3,0C6.9,20.2,6.9,19.3,7,18.9z M9.1,19c0.6-0.1,2.9-0.1,3.4,0
	l0,1.6l-3.4,0L9.1,19z M13.4,18.9h1.1c0,0,0,0.1,0,0.1c0.1,0.4,0.1,1.1,0.1,1.6l-1.3,0c0-0.3,0-0.6,0-1c0-0.1,0-0.4,0-0.5
	C13.3,19,13.4,19,13.4,18.9z M15.5,19c0.5-0.2,2.8-0.1,3.4,0l0,1.6l-3.4,0L15.5,19z M19.7,18.9l1.3,0l0,1.7l-1.3,0L19.7,18.9z
	 M5,21.4l17.9,0l-0.1,0.9l-17.8,0L5,21.4z"/>
</svg>
