<svg id="Warstwa_1" data-name="Warstwa 1" xmlns="http://www.w3.org/2000/svg" viewBox="0 0 28.19 28.19"><defs><style>.cls-1{fill-rule:evenodd;}</style></defs><title>5</title><path class="cls-1" d="M17.93,15.06c-.27,1.23.76,3.72-1.62,3.72H10A1.43,1.43,0,0,1,8.33,17.2V10.77c0-1.12.65-1.54,1.74-1.54h3.28c1.79,0,1.36,0,2.31-1a18.3,18.3,0,0,0,1.57-1.61,64.49,64.49,0,0,0-7-.14c-2.91,0-4.65,1.83-4.65,4.75v5.41c0,3,1.76,4.8,4.8,4.8H15.9a4.39,4.39,0,0,0,4.72-4.7V12.3A17.12,17.12,0,0,0,17.93,15.06Z"/><path class="cls-1" d="M12.31,16.11c2.44-.45,2.45-.91,3.91-2.37a39.57,39.57,0,0,0,3.1-3.18,6.61,6.61,0,0,0-1.47-1.47L14.7,12.22C13,13.88,12.92,13.56,12.31,16.11Z"/><path class="cls-1" d="M20.4,6.47c-.36.42-.76.83-1.07,1.24a6.65,6.65,0,0,0,1.49,1.46A13.76,13.76,0,0,0,21.93,8C23.17,6.91,21.31,5.42,20.4,6.47Z"/></svg>