<?xml version="1.0" encoding="utf-8"?>
<!-- Generator: Adobe Illustrator 23.0.1, SVG Export Plug-In . SVG Version: 6.00 Build 0)  -->
<svg version="1.1" id="Warstwa_1" xmlns="http://www.w3.org/2000/svg" xmlns:xlink="http://www.w3.org/1999/xlink" x="0px" y="0px"
	 viewBox="0 0 28.2 28.2" style="enable-background:new 0 0 28.2 28.2;" xml:space="preserve">
<style type="text/css">
	.st0{fill-rule:evenodd;clip-rule:evenodd;}
</style>
<path class="st0" d="M9.2,14.5l0.6,0l0-0.6l-0.6-0.1L9.2,14.5z M7,13.8l0.6,0l0-0.6l-0.6,0V13.8z M6.3,12.8l0.6,0l0-0.6l-0.6-0.1
	L6.3,12.8z M19.2,18.8c-2.5,0.9-1.1,4.5,1.3,3.6C22.7,21.5,21.5,18,19.2,18.8z M19.2,19.4c0.3-0.1-0.4-0.2,0.3-0.1l0,0.6l0.5,0
	l0-0.6l0.6,0.3c-0.4,0.3-0.6,0.2-0.3,0.6c0.2,0.4,0.3,0.2,0.7,0l0,0.6c-0.3-0.1-0.2-0.1-0.6-0.2L20.2,21l0.4,0.5l-0.6,0.2l0-0.5
	h-0.6c0,0.1,0,0.2,0,0.2c-0.1,0.3,0,0.1-0.1,0.3l-0.5-0.2l0.4-0.5l-0.2-0.3c-0.4,0-0.2,0.2-0.6-0.1l0.2-0.3c0.3,0,0.3,0.1,0.6-0.2
	c-0.1-0.5,0.1-0.2-0.4-0.5c0,0,0-0.1,0.1-0.1L19.2,19.4z M10.3,16.7v-0.5l-0.5-0.1c0,0-0.1,0-0.1-0.1c-0.6-1.6-2.1-1.3-4.4-1.2v1.1
	c-0.4,0.3-0.6-0.2-0.6,0.8c0.5,0,0.6-0.2,0.6,0.5c-0.2,0.1-0.1,0.2-0.6,0.2c-0.2,0.5,0,4.9-0.1,5.5c-0.1,0.4,0,0.2-0.6,0.2l0,0.6
	h19.8v-0.6c-0.6,0-0.5,0.1-0.6-0.2c-0.1-0.6,0.1-5-0.1-5.5l-0.6,0v-1.9l-1,0c0-0.9-0.1-3.2,0.1-3.8c0.4-1.2,0.2-2-0.6-2.7
	c-1.1-1-2.1-2.3-2.8-3c-0.4-0.4-0.3-0.7-0.7-1.1c-2.1-2.2-3.7,0.5-4.7,1.4l-2,1.9c-0.8,0.9-1.4,0.8-0.9,2.6
	c-0.4,0.6-1.4,1.3-1.6,1.9c0.7,0.4,0.7-0.1,2-1.4c1.9,0.5,1.8,0.1,2.9-0.9c3.2-2.7,1.4-2.4,4.2,0.1c0,1.1,0.3,1.3,0.3,2.4
	c0,0.9,0,1.8,0,2.7l-0.9,0l0,1.9l-0.6,0c-0.2,0.5-0.1,4.9-0.1,5.8l-5.8,0l0-5.7l-0.6-0.1l0-0.6L10.3,16.7z M15.5,4.6
	c2-0.7,3,2.4,1,3C14.5,8.3,13.3,5.4,15.5,4.6z M14.7,8.1c-0.4,0.4-2.6,2.5-3,2.6c-0.6,0.1-1-0.1-1.2-0.4c-0.7-1.2,1.8-2.7,3-4
	c0.1,0.1,0-0.1,0.2,0.3c0.1,0.2,0,0.1,0.1,0.3c0.1,0.2,0.1,0.3,0.2,0.5C14.3,7.7,14.5,7.8,14.7,8.1z M18,6.7l0.2-0.2l0.1,0.2
	l1.5,1.7c-0.9,0.2-1.1,0.3-1.7,0.9l-0.4,0.4c-0.3-0.5-0.6-0.8-1.1-1.2L17.1,8C17.5,7.8,17.9,7.3,18,6.7z M19.4,9.1
	c2.1-0.6,2.7,2.6,0.8,3.1C18,12.7,17.3,9.7,19.4,9.1z M18.5,12.5c1.3,0.5,1.3,0.4,2.6,0v2.9l-2.6,0V12.5z M7.9,15.4
	c0.8,0,1,0,1.3,0.6l-3.1,0v-0.6C6.6,15.4,7.2,15.4,7.9,15.4z M6,16.7l3.2,0l0,0.7l-3.2,0L6,16.7z M17.5,16.1l4.5,0l0,1.3l-4.5,0
	L17.5,16.1z M5.3,18l4.5,0l0,1.8L9.2,20l0.4,0.5c0.3,0.1,0.1-0.1,0.3,0.2l0,2.3l-4.5,0l0-2.6l3.2-0.1l0-0.6l-3.2,0L5.3,18z M16.9,18
	l5.8,0l0,5.1l-0.4,0l-4.8,0l-0.5,0L16.9,18z M10.5,13.8l0.6,0v-0.6h-0.6V13.8z"/>
</svg>
