<?xml version="1.0" encoding="utf-8"?>
<!-- Generator: Adobe Illustrator 23.0.1, SVG Export Plug-In . SVG Version: 6.00 Build 0)  -->
<svg version="1.1" id="Warstwa_1" xmlns="http://www.w3.org/2000/svg" xmlns:xlink="http://www.w3.org/1999/xlink" x="0px" y="0px"
	 viewBox="0 0 28.2 28.2" style="enable-background:new 0 0 28.2 28.2;" xml:space="preserve">
<style type="text/css">
	.st0{fill-rule:evenodd;clip-rule:evenodd;}
</style>
<path class="st0" d="M10.2,9.3H4.5l0,15.1h19c0-1.1-1-3.8-1.5-4.4c-1.6-1.9-3.1-1.2-4-1.8c0.2-0.8,1.4-0.6,2.1-3.1
	c1.6-0.4,1.3-1.8,1.3-3.4c1.3-0.9,0.2-1.6,0.1-1.7c-0.2-0.2-0.6-1.6-0.9-2.1C20,7,19.1,6.2,18.2,5.8l-1-0.5c-0.5,0-2.4-0.1-2.7,0
	c-0.4,0.1,0.1,0-0.4,0.2c-0.2,0.1-0.3,0.1-0.5,0.2c-0.4,0.1-0.7,0.3-0.9,0.5C12,6.8,11.8,7,11.3,7.7C10.5,8.8,10.8,9.3,10.2,9.3
	 M11,9.9c0.2-1.8,1.8-3.4,3.3-3.8l0,3.8L11,9.9z M14.9,5.9l1.9,0l0,4l-1.9,0L14.9,5.9z M17.4,6.2c1.6,0.3,3.1,2,3.3,3.7l-1.1,0v0.6
	c0.6,0,1.3-0.1,1.8,0.1c0,0.5,0,0.5-0.6,0.5H11c-0.6,0-0.6,0.1-0.6-0.5c0.9-0.5,7,0.2,8.6-0.2l0-0.5l-1.5,0L17.4,6.2z M5,9.9l5.2,0
	c-0.4,0.4-0.4,0.5-0.7,0.6l-3.8,0v5.8l6.5,0c0.1,0.3,0.2,0.3,0.3,0.6L5,17L5,9.9z M6.3,11.1l3.5,0c0.1,0.2,0.3,0.5,0.5,0.6l-2.1,0
	l0,0.6l2.1,0c0.1,0.8-0.1,1.5,0.4,2.1c0.7,0.8,0.9,0.1,1.2,1.2l-5.5,0L6.3,11.1z M10.9,11.7c0.4,0,0.3-0.1,0.6,0.1
	c-0.1,0.3,0.1,0.3-0.6,0.5L10.9,11.7z M20.3,12.1c-0.2-0.2-0.1,0-0.2-0.3l0.6-0.1l0,0.6C20.6,12.2,20.5,12.2,20.3,12.1z M11.6,14.4
	c-0.4-0.1-0.6-0.3-0.6-0.8c0-0.6,0.2-0.8,0.6-0.9L11.6,14.4z M20.2,12.7c0.3,0.2,0.6,0.3,0.6,0.9c0,0.5-0.3,0.7-0.7,0.8L20.2,12.7z
	 M19.6,11.7c0,1.5,0.2,3.3-0.6,4.4c-1.7,2.5-4.9,2.2-6.3-0.1c-0.7-1.1-0.6-2.9-0.5-4.4L19.6,11.7z M5.1,17.6c1.6,0,3.1,0,4.7,0
	c1.7,0,3.7-0.3,3.9,0.6c-0.7,0.4-1.9,0.3-2.7,0.7c-0.7,0.3-0.5,0.3-1.4,0.3c-0.5,0-1,0-1.5,0v-0.9l-2.4,0v2.4l2.4,0l0-0.9l1.7,0
	c-0.5,0.9-0.7,1.3-1.1,2.5l-3,0v0.6l2.8,0c-0.4,1.2,0,0.9-3.4,0.9L5.1,17.6z M17.4,18.3c-0.1,1-0.5,1.5-1.6,1.5
	c-1.1,0-1.4-0.5-1.6-1.5c0.5,0.1,1,0.2,1.6,0.2C16.4,18.5,16.9,18.3,17.4,18.3z M12.5,21.4l2.5,2.4l-3.1,0c0-0.6,0.3-1.8,0.1-2.1
	l-0.4,0c-0.3,0.4-0.3,1.5-0.4,2.1l-2.5,0c0.6-2.4,1.3-4.6,3.9-4.7L12.5,21.4z M19,19c1.1,0.1,2.2,0.5,2.7,1.5c0.4,0.6,1,2.5,1.2,3.2
	l-2.5,0c-0.1-0.4-0.1-0.7-0.1-1.1c-0.1-0.5,0-0.8-0.3-1.1l-0.4,0c-0.2,0.4,0.1,1.6,0.1,2.1l-3.1,0c0.2-0.3,0.4-0.3,0.6-0.6
	c0.3-0.3,0.3-0.3,0.6-0.6c0.4-0.3,1-0.8,1.3-1.2L19,19z M6.3,18.8l1.3,0v1.3l-0.8,0l-0.5,0V18.8z M15.9,23l-1-2.8
	c0.9,0.2,1,0.2,1.9,0L15.9,23z M13.4,18.9c0.6,0,0.5,0.1,0.7,0.8l1.1,3.3c-0.4-0.2-1.7-1.4-2.1-1.8L13.4,18.9z M13.4,14.2
	c0.2,3.3,4.7,3.3,4.9,0c-1,0-0.4,0.4-1,1.2C17,15.7,16.5,16,15.9,16c-0.7,0-1.3-0.4-1.5-0.7C13.8,14.6,14.4,14.2,13.4,14.2z
	 M6.9,12.3l0.2,0.1l0.4,0l0-0.4l0-0.2l-0.6,0L6.9,12.3z M13.9,12.9v-0.5h-0.5l0,0.5H13.9z M18.3,12.9v-0.5h-0.5v0.5H18.3z M16.6,23
	l1.1-3.3c0.3-1.1,0.1-0.8,0.6-0.8c0.3,0.3,0.2,0.3,0.3,1c0,0.4,0.1,0.8,0.1,1.2C18.2,21.5,16.9,22.8,16.6,23z"/>
</svg>
